# xmcd CD database file
#
# Track frame offsets:
#	150
#	17179
#	34495
#	49724
#	66825
#	95539
#	109989
#	126121
#	144152
#	168576
#	182897
#	198136
#	215146
#	232271
#	244773
#	261071
#	278473
#	291751
#
# Disc length: 4140 seconds
#
# Revision: 0
# Processed by: cddbd v1.5.1PL2 Copyright (c) Steve Scherf et al.
# Submitted via: CDex 1.51
#
DISCID=13102a12
DTITLE=Various Artist - Deep Heat The 1st Attack CD 2
DYEAR=2005
DGENRE=Mix
TTITLE0=Music Instructor - Gel Freaky
TTITLE1=Two Unlimited - Be Free tonight
TTITLE2=Vangaboys - Boom Boom 
TTITLE3=DJ Visage - Geil
TTITLE4=Woody van Eyden - Time now
TTITLE5=Ayla - Liebe
TTITLE6=Adrima - Livig on a Fantasy
TTITLE7=Mauro Picotto - Lizard
TTITLE8=Ficco - Straight till the End
TTITLE9=Schiller - Das Glockenspiel
TTITLE10=666 - Paradoxx
TTITLE11=Chelsea - The Rythem of Life
TTITLE12=E-Type - Angels Crying
TTITLE13=Patsy - Money 4 me
TTITLE14=Sash - The Trip 1.03
TTITLE15=DJ Dado - Ready or not
TTITLE16=Kay Cee - Love Simulation
TTITLE17=Madonna - Power of Good Bye
EXTD=YEAR: 2005
EXTT0=
EXTT1=
EXTT2=
EXTT3=
EXTT4=
EXTT5=
EXTT6=
EXTT7=
EXTT8=
EXTT9=
EXTT10=
EXTT11=
EXTT12=
EXTT13=
EXTT14=
EXTT15=
EXTT16=
EXTT17=
PLAYORDER=
